<?xml version="1.0" encoding="utf-8"?>
<!-- Generator: Adobe Illustrator 26.0.3, SVG Export Plug-In . SVG Version: 6.00 Build 0)  -->
<svg version="1.1" id="Layer_1" xmlns="http://www.w3.org/2000/svg" xmlns:xlink="http://www.w3.org/1999/xlink" x="0px" y="0px"
	 viewBox="0 0 1000 1000" style="enable-background:new 0 0 1000 1000;" xml:space="preserve">
<style type="text/css">
	.st0{fill:#0D4A72;}
	.st1{fill:#0E6393;}
	.st2{fill:#0F7AB6;}
	.st3{fill:#1C8BC9;}
	.st4{fill:#1D9BD4;}
	.st5{fill:#28B1E1;}
	.st6{fill:#68C6EA;}
	.st7{fill:#9CD4ED;}
</style>
<polygon class="st0" points="500.19,31.58 500.19,119.02 438.04,154.9 "/>
<polygon class="st1" points="438.04,154.9 438.04,67.46 500.19,31.58 "/>
<polygon class="st2" points="438.04,154.9 438.04,67.46 375.53,103.55 "/>
<polygon class="st3" points="438.04,154.9 375.53,190.99 375.53,103.55 "/>
<polygon class="st4" points="375.53,103.55 313.14,139.57 375.53,190.99 "/>
<polygon class="st5" points="313.14,139.57 313.14,227.02 375.53,190.99 "/>
<polygon class="st6" points="313.14,139.57 251.04,175.42 313.14,227.02 "/>
<polygon class="st7" points="251.04,175.42 313.14,227.02 251.04,262.87 "/>
<polygon class="st6" points="251.04,175.42 188.47,211.55 251.04,262.87 "/>
<polygon class="st5" points="188.47,211.55 251.04,262.87 188.47,298.99 "/>
<polygon class="st4" points="188.47,211.55 126.02,247.61 188.47,298.99 "/>
<polygon class="st3" points="188.47,298.99 92.29,267.08 126.02,247.61 "/>
<polygon class="st2" points="92.29,267.08 168.02,310.8 188.47,298.99 "/>
<polygon class="st1" points="92.29,267.08 92.31,339.24 168.02,310.8 "/>
<polygon class="st0" points="92.31,339.24 92.31,397.58 168.02,310.8 "/>
<polygon class="st1" points="92.31,397.58 168.02,344.21 168.02,310.8 "/>
<polygon class="st2" points="92.31,397.58 168.02,344.21 214.36,360.76 "/>
<polygon class="st3" points="92.31,397.58 214.36,360.76 214.36,441.01 "/>
<polygon class="st1" points="500.36,31.36 500.36,118.81 562.51,154.69 "/>
<polygon class="st0" points="561.93,154.69 561.93,67.25 499.78,31.36 "/>
<polygon class="st3" points="561.93,154.69 561.93,67.25 624.44,103.33 "/>
<polygon class="st4" points="561.93,154.69 624.44,190.78 624.44,103.33 "/>
<polygon class="st5" points="624.44,103.33 686.84,139.36 624.44,190.78 "/>
<polygon class="st6" points="686.84,139.36 686.84,226.8 624.44,190.78 "/>
<polygon class="st7" points="686.84,139.36 748.93,175.21 686.84,226.8 "/>
<polygon class="st6" points="748.93,175.21 686.84,226.8 748.93,262.65 "/>
<polygon class="st5" points="748.93,175.21 811.5,211.33 748.93,262.65 "/>
<polygon class="st4" points="811.5,211.33 748.93,262.65 811.5,298.78 "/>
<polygon class="st3" points="811.5,211.33 873.96,247.39 811.5,298.78 "/>
<polygon class="st2" points="811.5,298.78 873.96,247.39 907.09,267.08 "/>
<polygon class="st1" points="811.5,298.78 907.09,267.08 831.36,310.8 "/>
<polygon class="st0" points="831.36,310.8 907.09,267.08 907.09,362.93 "/>
<polygon class="st1" points="831.36,310.8 831.36,407.16 907.09,362.93 "/>
<polygon class="st0" points="500.36,973.12 500.36,885.67 438.21,849.79 "/>
<polygon class="st1" points="438.2,849.79 438.2,937.24 500.35,973.12 "/>
<polygon class="st2" points="438.2,849.79 438.2,937.24 375.69,901.15 "/>
<polygon class="st3" points="438.2,849.79 375.69,813.7 375.69,901.15 "/>
<polygon class="st4" points="375.69,901.15 313.3,865.12 375.69,813.7 "/>
<polygon class="st5" points="313.3,865.12 313.3,777.68 375.69,813.7 "/>
<polygon class="st6" points="313.3,865.12 251.2,829.27 313.3,777.68 "/>
<polygon class="st7" points="251.2,829.27 313.3,777.68 251.2,741.83 "/>
<polygon class="st6" points="251.2,829.27 188.63,793.15 251.2,741.83 "/>
<polygon class="st5" points="188.63,793.15 251.2,741.83 188.63,705.71 "/>
<polygon class="st4" points="188.63,793.15 126.17,757.09 188.63,705.71 "/>
<polygon class="st3" points="188.63,705.71 92.45,737.62 126.17,757.09 "/>
<polygon class="st2" points="92.45,737.62 168.18,693.9 188.63,705.71 "/>
<polygon class="st1" points="92.45,737.62 92.47,665.46 168.18,693.9 "/>
<polygon class="st1" points="499.94,973.33 499.94,885.89 562.09,850 "/>
<polygon class="st0" points="562.09,850 562.09,937.45 499.94,973.33 "/>
<polygon class="st3" points="562.09,850 562.09,937.45 624.6,901.36 "/>
<polygon class="st4" points="562.09,850 624.6,813.91 624.6,901.36 "/>
<polygon class="st5" points="624.6,901.36 687,865.34 624.6,813.91 "/>
<polygon class="st6" points="687,865.34 687,777.89 624.6,813.91 "/>
<polygon class="st7" points="687,865.34 749.09,829.49 687,777.89 "/>
<polygon class="st6" points="749.09,829.49 687,777.89 749.09,742.04 "/>
<polygon class="st5" points="749.09,829.49 811.66,793.36 749.09,742.04 "/>
<polygon class="st4" points="811.66,793.36 749.09,742.04 811.66,705.92 "/>
<polygon class="st3" points="811.66,793.36 874.12,757.3 811.66,705.92 "/>
<polygon class="st2" points="811.66,705.92 874.12,757.3 907.25,737.62 "/>
<polygon class="st1" points="811.66,705.92 907.25,737.62 831.52,693.9 "/>
<polygon class="st0" points="92.47,665.46 168.18,693.9 168.18,621.66 "/>
<polygon class="st1" points="92.47,665.46 92.29,609.04 168.18,621.66 "/>
<polygon class="st2" points="168.18,621.66 168.02,564.84 92.29,609.04 "/>
<polygon class="st0" points="321.36,398.97 321.36,479.1 389.07,503.2 "/>
<polygon class="st1" points="389.07,503.2 321.36,398.97 389.07,423.14 "/>
<polygon class="st3" points="389.07,423.14 389.07,503.2 457.2,527.45 "/>
<polygon class="st4" points="389.07,423.14 457.2,447.47 457.2,527.45 "/>
<polygon class="st5" points="457.2,447.47 457.2,527.45 525.05,551.61 "/>
<polygon class="st6" points="457.2,447.47 525.05,471.7 525.05,551.61 "/>
<polygon class="st7" points="525.05,471.7 593.08,495.99 525.05,551.61 "/>
<polygon class="st6" points="593.08,495.99 525.05,551.61 593.08,575.82 "/>
<polygon class="st5" points="593.08,575.82 661.13,600.05 593.08,495.99 "/>
<polygon class="st4" points="661.13,600.05 593.08,495.99 661.13,520.29 "/>
<polygon class="st3" points="661.13,600.05 729.13,624.25 661.13,520.29 "/>
<polygon class="st2" points="729.13,624.25 661.13,520.29 729.13,544.58 "/>
<polygon class="st1" points="729.13,624.25 797.09,648.44 729.13,544.58 "/>
<polygon class="st0" points="797.09,648.44 729.13,544.58 797.09,568.84 "/>
<polygon class="st1" points="797.09,648.44 797.09,568.84 864.78,593.3 "/>
<polygon class="st2" points="797.09,648.44 908.16,687.98 864.78,593.3 "/>
<polygon class="st3" points="864.78,593.3 908.16,687.98 908.36,608.58 "/>
<polygon class="st3" points="908.16,687.98 831.52,693.9 832.36,661 "/>
<polygon class="st4" points="831.52,693.9 908.09,738.08 908.16,687.98 "/>
<polygon class="st7" points="498.67,192.62 499.98,276.44 438.04,312.2 "/>
<polygon class="st6" points="498.67,192.62 438.04,227.62 438.04,312.2 "/>
<polygon class="st5" points="438.04,312.2 438.04,227.62 375.53,263.71 "/>
<polygon class="st4" points="375.53,263.71 375.53,348.29 438.04,312.2 "/>
<polygon class="st3" points="375.53,263.71 313.14,299.73 375.53,348.29 "/>
<polygon class="st2" points="313.14,299.73 313.14,384.31 375.53,348.29 "/>
<polygon class="st1" points="313.14,299.73 251.04,335.58 313.14,384.31 "/>
<polygon class="st0" points="313.14,384.31 230.65,347.36 251.04,335.58 "/>
<polygon class="st1" points="313.14,384.31 303.77,389.72 230.65,347.36 "/>
<polygon class="st2" points="230.65,347.36 230.65,419.06 303.77,389.72 "/>
<polygon class="st3" points="230.65,419.06 303.77,389.72 303.77,461.83 "/>
<polygon class="st4" points="230.65,419.06 230.65,491.26 303.77,461.83 "/>
<polygon class="st5" points="230.65,491.26 303.77,461.83 303.77,533.48 "/>
<polygon class="st6" points="230.65,491.26 230.65,563.18 303.77,533.48 "/>
<polygon class="st7" points="230.65,563.18 303.77,533.48 303.77,605.41 "/>
<polygon class="st6" points="230.65,563.18 230.65,635.38 303.77,605.41 "/>
<polygon class="st5" points="230.65,635.38 230.65,656.84 303.77,605.41 "/>
<polygon class="st4" points="230.65,656.84 303.77,605.41 303.77,699.05 "/>
<polygon class="st3" points="303.77,699.05 303.77,616.29 366.01,652.23 "/>
<polygon class="st1" points="303.77,699.05 366.01,734.99 366.01,652.23 "/>
<polygon class="st0" points="366.01,652.23 428.57,688.35 366.01,734.99 "/>
<polygon class="st2" points="366.01,734.99 428.57,688.35 428.57,771.1 "/>
<polygon class="st3" points="428.57,771.1 428.57,688.35 500.36,729.58 "/>
<polygon class="st4" points="499.98,729.58 498.67,811.58 428.57,771.1 "/>
<polygon class="st5" points="499.98,729.58 498.67,811.58 559.07,776.71 "/>
<polygon class="st6" points="499.98,729.58 559.07,695.46 559.07,776.71 "/>
<polygon class="st7" points="559.07,695.46 559.07,776.71 614.86,744.49 "/>
<polygon class="st6" points="559.07,695.46 614.86,663.25 614.86,744.49 "/>
<polygon class="st5" points="614.86,663.25 614.86,744.49 675.54,709.46 "/>
<path class="st4" d="M675.54,709.46"/>
<polygon class="st4" points="675.54,709.46 614.86,663.25 658.56,638.02 "/>
<polygon class="st2" points="675.54,709.46 745.62,669 658.56,638.02 "/>
<polygon class="st6" points="499.98,276.44 498.67,192.62 559.07,227.62 "/>
<polygon class="st5" points="499.98,276.44 559.07,310.55 559.07,227.62 "/>
<polygon class="st0" points="671.17,292.21 727.52,324.74 671.17,375.27 "/>
<polygon class="st1" points="671.17,375.27 727.52,324.74 766.69,347.36 "/>
<polygon class="st3" points="671.17,375.27 696.2,389.72 766.69,347.36 "/>
<polygon class="st4" points="696.2,389.72 766.69,347.36 766.69,410.98 "/>
<polygon class="st5" points="696.2,389.72 766.69,410.98 696.2,435.68 "/>
<polygon class="st6" points="696.2,435.68 766.69,443.86 766.69,410.98 "/>
<polygon class="st7" points="696.2,435.68 766.69,443.86 696.2,486.29 "/>
<polygon class="st4" points="559.07,310.55 559.07,227.62 614.86,259.7 "/>
<polygon class="st3" points="559.07,310.55 614.86,259.7 614.86,342.76 "/>
<polygon class="st2" points="614.86,259.7 671.17,292.21 614.86,342.76 "/>
<polygon class="st1" points="614.86,342.76 671.17,375.27 671.17,292.21 "/>
</svg>
