<?xml version="1.0" encoding="utf-8"?>
<!-- Generator: Adobe Illustrator 26.0.3, SVG Export Plug-In . SVG Version: 6.00 Build 0)  -->
<svg version="1.1" id="Layer_1" xmlns="http://www.w3.org/2000/svg" xmlns:xlink="http://www.w3.org/1999/xlink" x="0px" y="0px"
	 viewBox="0 0 52.17 44.29" style="enable-background:new 0 0 52.17 44.29;" xml:space="preserve">
<style type="text/css">
	.st0{fill:#0D4A72;}
	.st1{fill:#0E6393;}
	.st2{fill:#0F7AB6;}
	.st3{fill:#1C8BC9;}
	.st4{fill:#1D9BD4;}
	.st5{fill:#28B1E1;}
	.st6{fill:#68C6EA;}
	.st7{fill:#9CD4ED;}
</style>
<polygon class="st0" points="26.89,0.42 26.89,4.5 23.99,6.17 "/>
<polygon class="st1" points="23.99,6.17 23.99,2.09 26.89,0.42 "/>
<polygon class="st2" points="23.99,6.17 23.99,2.09 21.08,3.78 "/>
<polygon class="st3" points="23.99,6.17 21.08,7.85 21.08,3.78 "/>
<polygon class="st4" points="21.08,3.78 18.17,5.45 21.08,7.85 "/>
<polygon class="st5" points="18.17,5.45 18.17,9.53 21.08,7.85 "/>
<polygon class="st6" points="18.17,5.45 15.28,7.12 18.17,9.53 "/>
<polygon class="st7" points="15.28,7.12 18.17,9.53 15.28,11.2 "/>
<polygon class="st6" points="15.28,7.12 12.36,8.81 15.28,11.2 "/>
<polygon class="st5" points="12.36,8.81 15.28,11.2 12.36,12.88 "/>
<polygon class="st4" points="12.36,8.81 9.45,10.49 12.36,12.88 "/>
<polygon class="st3" points="12.36,12.88 7.88,11.4 9.45,10.49 "/>
<polygon class="st2" points="7.88,11.4 11.41,13.43 12.36,12.88 "/>
<polygon class="st1" points="7.88,11.4 7.88,14.76 11.41,13.43 "/>
<polygon class="st0" points="7.88,14.76 7.88,17.48 11.41,13.43 "/>
<polygon class="st1" points="7.88,17.48 11.41,14.99 11.41,13.43 "/>
<polygon class="st2" points="7.88,17.48 11.41,14.99 13.57,15.76 "/>
<polygon class="st3" points="7.88,17.48 13.57,15.76 13.57,19.5 "/>
<polygon class="st1" points="26.89,0.41 26.89,4.49 29.79,6.16 "/>
<polygon class="st0" points="29.76,6.16 29.76,2.08 26.87,0.41 "/>
<polygon class="st3" points="29.76,6.16 29.76,2.08 32.67,3.77 "/>
<polygon class="st4" points="29.76,6.16 32.67,7.84 32.67,3.77 "/>
<polygon class="st5" points="32.67,3.77 35.58,5.44 32.67,7.84 "/>
<polygon class="st6" points="35.58,5.44 35.58,9.52 32.67,7.84 "/>
<polygon class="st7" points="35.58,5.44 38.48,7.11 35.58,9.52 "/>
<polygon class="st6" points="38.48,7.11 35.58,9.52 38.48,11.19 "/>
<polygon class="st5" points="38.48,7.11 41.39,8.8 38.48,11.19 "/>
<polygon class="st4" points="41.39,8.8 38.48,11.19 41.39,12.87 "/>
<polygon class="st3" points="41.39,8.8 44.3,10.48 41.39,12.87 "/>
<polygon class="st2" points="41.39,12.87 44.3,10.48 45.85,11.4 "/>
<polygon class="st1" points="41.39,12.87 45.85,11.4 42.32,13.43 "/>
<polygon class="st0" points="42.32,13.43 45.85,11.4 45.85,15.86 "/>
<polygon class="st1" points="42.32,13.43 42.32,17.92 45.85,15.86 "/>
<polygon class="st0" points="26.89,44.3 26.89,40.22 24,38.55 "/>
<polygon class="st1" points="24,38.55 24,42.62 26.89,44.3 "/>
<polygon class="st2" points="24,38.55 24,42.62 21.08,40.94 "/>
<polygon class="st3" points="24,38.55 21.08,36.87 21.08,40.94 "/>
<polygon class="st4" points="21.08,40.94 18.18,39.26 21.08,36.87 "/>
<polygon class="st5" points="18.18,39.26 18.18,35.19 21.08,36.87 "/>
<polygon class="st6" points="18.18,39.26 15.28,37.59 18.18,35.19 "/>
<polygon class="st7" points="15.28,37.59 18.18,35.19 15.28,33.52 "/>
<polygon class="st6" points="15.28,37.59 12.37,35.91 15.28,33.52 "/>
<polygon class="st5" points="12.37,35.91 15.28,33.52 12.37,31.83 "/>
<polygon class="st4" points="12.37,35.91 9.46,34.23 12.37,31.83 "/>
<polygon class="st3" points="12.37,31.83 7.89,33.32 9.46,34.23 "/>
<polygon class="st2" points="7.89,33.32 11.41,31.28 12.37,31.83 "/>
<polygon class="st1" points="7.89,33.32 7.89,29.96 11.41,31.28 "/>
<polygon class="st1" points="26.87,44.31 26.87,40.23 29.77,38.56 "/>
<polygon class="st0" points="29.77,38.56 29.77,42.63 26.87,44.31 "/>
<polygon class="st3" points="29.77,38.56 29.77,42.63 32.68,40.95 "/>
<polygon class="st4" points="29.77,38.56 32.68,36.88 32.68,40.95 "/>
<polygon class="st5" points="32.68,40.95 35.59,39.27 32.68,36.88 "/>
<polygon class="st6" points="35.59,39.27 35.59,35.2 32.68,36.88 "/>
<polygon class="st7" points="35.59,39.27 38.48,37.6 35.59,35.2 "/>
<polygon class="st6" points="38.48,37.6 35.59,35.2 38.48,33.53 "/>
<polygon class="st5" points="38.48,37.6 41.4,35.92 38.48,33.53 "/>
<polygon class="st4" points="41.4,35.92 38.48,33.53 41.4,31.84 "/>
<polygon class="st3" points="41.4,35.92 44.31,34.24 41.4,31.84 "/>
<polygon class="st2" points="41.4,31.84 44.31,34.24 45.85,33.32 "/>
<polygon class="st1" points="41.4,31.84 45.85,33.32 42.32,31.28 "/>
<polygon class="st0" points="7.89,29.96 11.41,31.28 11.41,27.92 "/>
<polygon class="st1" points="7.89,29.96 7.88,27.33 11.41,27.92 "/>
<polygon class="st2" points="11.41,27.92 11.41,25.27 7.88,27.33 "/>
<polygon class="st0" points="18.55,17.54 18.55,21.28 21.71,22.4 "/>
<polygon class="st1" points="21.71,22.4 18.55,17.54 21.71,18.67 "/>
<polygon class="st3" points="21.71,18.67 21.71,22.4 24.88,23.53 "/>
<polygon class="st4" points="21.71,18.67 24.88,19.8 24.88,23.53 "/>
<polygon class="st5" points="24.88,19.8 24.88,23.53 28.04,24.65 "/>
<polygon class="st6" points="24.88,19.8 28.04,20.93 28.04,24.65 "/>
<polygon class="st7" points="28.04,20.93 31.21,22.06 28.04,24.65 "/>
<polygon class="st6" points="31.21,22.06 28.04,24.65 31.21,25.78 "/>
<polygon class="st5" points="31.21,25.78 34.38,26.91 31.21,22.06 "/>
<polygon class="st4" points="34.38,26.91 31.21,22.06 34.38,23.19 "/>
<polygon class="st3" points="34.38,26.91 37.55,28.04 34.38,23.19 "/>
<polygon class="st2" points="37.55,28.04 34.38,23.19 37.55,24.33 "/>
<polygon class="st1" points="37.55,28.04 40.72,29.17 37.55,24.33 "/>
<polygon class="st0" points="40.72,29.17 37.55,24.33 40.72,25.46 "/>
<polygon class="st1" points="40.72,29.17 40.72,25.46 43.87,26.6 "/>
<polygon class="st2" points="40.72,29.17 45.9,31.01 43.87,26.6 "/>
<polygon class="st3" points="43.87,26.6 45.9,31.01 45.9,27.31 "/>
<polygon class="st3" points="45.9,31.01 42.32,31.28 42.36,29.75 "/>
<polygon class="st4" points="42.32,31.28 45.89,33.34 45.9,31.01 "/>
<polygon class="st7" points="26.81,7.93 26.88,11.83 23.99,13.5 "/>
<polygon class="st6" points="26.81,7.93 23.99,9.56 23.99,13.5 "/>
<polygon class="st5" points="23.99,13.5 23.99,9.56 21.08,11.24 "/>
<polygon class="st4" points="21.08,11.24 21.08,15.18 23.99,13.5 "/>
<polygon class="st3" points="21.08,11.24 18.17,12.92 21.08,15.18 "/>
<polygon class="st2" points="18.17,12.92 18.17,16.86 21.08,15.18 "/>
<polygon class="st1" points="18.17,12.92 15.28,14.59 18.17,16.86 "/>
<polygon class="st0" points="18.17,16.86 14.33,15.14 15.28,14.59 "/>
<polygon class="st1" points="18.17,16.86 17.73,17.11 14.33,15.14 "/>
<polygon class="st2" points="14.33,15.14 14.33,18.48 17.73,17.11 "/>
<polygon class="st3" points="14.33,18.48 17.73,17.11 17.73,20.47 "/>
<polygon class="st4" points="14.33,18.48 14.33,21.84 17.73,20.47 "/>
<polygon class="st5" points="14.33,21.84 17.73,20.47 17.73,23.81 "/>
<polygon class="st6" points="14.33,21.84 14.33,25.19 17.73,23.81 "/>
<polygon class="st7" points="14.33,25.19 17.73,23.81 17.73,27.16 "/>
<polygon class="st6" points="14.33,25.19 14.33,28.56 17.73,27.16 "/>
<polygon class="st5" points="14.33,28.56 14.33,29.56 17.73,27.16 "/>
<polygon class="st4" points="14.33,29.56 17.73,27.16 17.73,31.52 "/>
<polygon class="st3" points="17.73,31.52 17.73,27.67 20.63,29.34 "/>
<polygon class="st1" points="17.73,31.52 20.63,33.2 20.63,29.34 "/>
<polygon class="st0" points="20.63,29.34 23.55,31.03 20.63,33.2 "/>
<polygon class="st2" points="20.63,33.2 23.55,31.03 23.55,34.88 "/>
<polygon class="st3" points="23.55,34.88 23.55,31.03 26.89,32.95 "/>
<polygon class="st4" points="26.88,32.95 26.81,36.77 23.55,34.88 "/>
<polygon class="st5" points="26.88,32.95 26.81,36.77 29.63,35.14 "/>
<polygon class="st6" points="26.88,32.95 29.63,31.36 29.63,35.14 "/>
<polygon class="st7" points="29.63,31.36 29.63,35.14 32.23,33.64 "/>
<polygon class="st6" points="29.63,31.36 32.23,29.86 32.23,33.64 "/>
<polygon class="st5" points="32.23,29.86 32.23,33.64 35.06,32.01 "/>
<path class="st4" d="M35.06,32.01"/>
<polygon class="st4" points="35.06,32.01 32.23,29.86 34.26,28.68 "/>
<polygon class="st2" points="35.06,32.01 38.32,30.12 34.26,28.68 "/>
<polygon class="st6" points="26.88,11.83 26.81,7.93 29.63,9.56 "/>
<polygon class="st5" points="26.88,11.83 29.63,13.42 29.63,9.56 "/>
<polygon class="st0" points="34.85,12.57 37.48,14.08 34.85,16.44 "/>
<polygon class="st1" points="34.85,16.44 37.48,14.08 39.3,15.14 "/>
<polygon class="st3" points="34.85,16.44 36.02,17.11 39.3,15.14 "/>
<polygon class="st4" points="36.02,17.11 39.3,15.14 39.3,18.1 "/>
<polygon class="st5" points="36.02,17.11 39.3,18.1 36.02,19.25 "/>
<polygon class="st6" points="36.02,19.25 39.3,19.63 39.3,18.1 "/>
<polygon class="st7" points="36.02,19.25 39.3,19.63 36.02,21.61 "/>
<polygon class="st4" points="29.63,13.42 29.63,9.56 32.23,11.05 "/>
<polygon class="st3" points="29.63,13.42 32.23,11.05 32.23,14.92 "/>
<polygon class="st2" points="32.23,11.05 34.85,12.57 32.23,14.92 "/>
<polygon class="st1" points="32.23,14.92 34.85,16.44 34.85,12.57 "/>
</svg>
