<?xml version="1.0" encoding="utf-8"?>
<!-- Generator: Adobe Illustrator 26.0.3, SVG Export Plug-In . SVG Version: 6.00 Build 0)  -->
<svg version="1.1" id="Layer_1" xmlns="http://www.w3.org/2000/svg" xmlns:xlink="http://www.w3.org/1999/xlink" x="0px" y="0px"
	 viewBox="0 0 700 200" style="enable-background:new 0 0 700 200;" xml:space="preserve">
<style type="text/css">
	.st0{fill:#0D4A72;}
	.st1{fill:#0E6393;}
	.st2{fill:#0F7AB6;}
	.st3{fill:#1C8BC9;}
	.st4{fill:#1D9BD4;}
	.st5{fill:#28B1E1;}
	.st6{fill:#68C6EA;}
	.st7{fill:#9CD4ED;}
	.st8{fill:#0D4A72;stroke:#FFFFFF;stroke-miterlimit:10;}
	.st9{font-family:'Goldman-Bold';}
	.st10{font-size:166px;}
	.st11{letter-spacing:12;}
	.st12{fill:#0E6393;stroke:#FFFFFF;stroke-miterlimit:10;}
	.st13{fill:#0F7AB6;stroke:#FFFFFF;stroke-miterlimit:10;}
	.st14{fill:#1D9BD4;stroke:#FFFFFF;stroke-miterlimit:10;}
	.st15{font-family:'Goldman-Regular';}
	.st16{font-size:34px;}
</style>
<polygon class="st0" points="92.44,4.1 92.44,21.88 79.8,29.18 "/>
<polygon class="st1" points="79.8,29.18 79.8,11.4 92.44,4.1 "/>
<polygon class="st2" points="79.8,29.18 79.8,11.4 67.08,18.74 "/>
<polygon class="st3" points="79.8,29.18 67.08,36.52 67.08,18.74 "/>
<polygon class="st4" points="67.08,18.74 54.4,26.06 67.08,36.52 "/>
<polygon class="st5" points="54.4,26.06 54.4,43.85 67.08,36.52 "/>
<polygon class="st6" points="54.4,26.06 41.77,33.35 54.4,43.85 "/>
<polygon class="st7" points="41.77,33.35 54.4,43.85 41.77,51.14 "/>
<polygon class="st6" points="41.77,33.35 29.04,40.7 41.77,51.14 "/>
<polygon class="st5" points="29.04,40.7 41.77,51.14 29.04,58.48 "/>
<polygon class="st4" points="29.04,40.7 16.34,48.03 29.04,58.48 "/>
<polygon class="st3" points="29.04,58.48 9.48,51.99 16.34,48.03 "/>
<polygon class="st2" points="9.48,51.99 24.88,60.89 29.04,58.48 "/>
<polygon class="st1" points="9.48,51.99 9.48,66.67 24.88,60.89 "/>
<polygon class="st0" points="9.48,66.67 9.48,78.53 24.88,60.89 "/>
<polygon class="st1" points="9.48,78.53 24.88,67.68 24.88,60.89 "/>
<polygon class="st2" points="9.48,78.53 24.88,67.68 34.31,71.05 "/>
<polygon class="st3" points="9.48,78.53 34.31,71.05 34.31,87.37 "/>
<polygon class="st1" points="92.47,4.05 92.47,21.84 105.11,29.14 "/>
<polygon class="st0" points="104.99,29.14 104.99,11.35 92.35,4.05 "/>
<polygon class="st3" points="104.99,29.14 104.99,11.35 117.71,18.69 "/>
<polygon class="st4" points="104.99,29.14 117.71,36.48 117.71,18.69 "/>
<polygon class="st5" points="117.71,18.69 130.4,26.02 117.71,36.48 "/>
<polygon class="st6" points="130.4,26.02 130.4,43.8 117.71,36.48 "/>
<polygon class="st7" points="130.4,26.02 143.03,33.31 130.4,43.8 "/>
<polygon class="st6" points="143.03,33.31 130.4,43.8 143.03,51.09 "/>
<polygon class="st5" points="143.03,33.31 155.75,40.66 143.03,51.09 "/>
<polygon class="st4" points="155.75,40.66 143.03,51.09 155.75,58.44 "/>
<polygon class="st3" points="155.75,40.66 168.45,47.99 155.75,58.44 "/>
<polygon class="st2" points="155.75,58.44 168.45,47.99 175.19,51.99 "/>
<polygon class="st1" points="155.75,58.44 175.19,51.99 159.79,60.89 "/>
<polygon class="st0" points="159.79,60.89 175.19,51.99 175.19,71.49 "/>
<polygon class="st1" points="159.79,60.89 159.79,80.48 175.19,71.49 "/>
<polygon class="st0" points="92.47,195.59 92.47,177.8 79.83,170.5 "/>
<polygon class="st1" points="79.83,170.5 79.83,188.29 92.47,195.59 "/>
<polygon class="st2" points="79.83,170.5 79.83,188.29 67.12,180.95 "/>
<polygon class="st3" points="79.83,170.5 67.12,163.16 67.12,180.95 "/>
<polygon class="st4" points="67.12,180.95 54.43,173.62 67.12,163.16 "/>
<polygon class="st5" points="54.43,173.62 54.43,155.84 67.12,163.16 "/>
<polygon class="st6" points="54.43,173.62 41.8,166.33 54.43,155.84 "/>
<polygon class="st7" points="41.8,166.33 54.43,155.84 41.8,148.55 "/>
<polygon class="st6" points="41.8,166.33 29.07,158.98 41.8,148.55 "/>
<polygon class="st5" points="29.07,158.98 41.8,148.55 29.07,141.2 "/>
<polygon class="st4" points="29.07,158.98 16.37,151.65 29.07,141.2 "/>
<polygon class="st3" points="29.07,141.2 9.51,147.69 16.37,151.65 "/>
<polygon class="st2" points="9.51,147.69 24.91,138.8 29.07,141.2 "/>
<polygon class="st1" points="9.51,147.69 9.52,133.02 24.91,138.8 "/>
<polygon class="st1" points="92.39,195.63 92.39,177.85 105.03,170.55 "/>
<polygon class="st0" points="105.03,170.55 105.03,188.33 92.39,195.63 "/>
<polygon class="st3" points="105.03,170.55 105.03,188.33 117.74,180.99 "/>
<polygon class="st4" points="105.03,170.55 117.74,163.21 117.74,180.99 "/>
<polygon class="st5" points="117.74,180.99 130.43,173.67 117.74,163.21 "/>
<polygon class="st6" points="130.43,173.67 130.43,155.88 117.74,163.21 "/>
<polygon class="st7" points="130.43,173.67 143.06,166.37 130.43,155.88 "/>
<polygon class="st6" points="143.06,166.37 130.43,155.88 143.06,148.59 "/>
<polygon class="st5" points="143.06,166.37 155.78,159.03 143.06,148.59 "/>
<polygon class="st4" points="155.78,159.03 143.06,148.59 155.78,141.24 "/>
<polygon class="st3" points="155.78,159.03 168.49,151.69 155.78,141.24 "/>
<polygon class="st2" points="155.78,141.24 168.49,151.69 175.22,147.69 "/>
<polygon class="st1" points="155.78,141.24 175.22,147.69 159.82,138.8 "/>
<polygon class="st0" points="9.52,133.02 24.91,138.8 24.91,124.11 "/>
<polygon class="st1" points="9.52,133.02 9.48,121.54 24.91,124.11 "/>
<polygon class="st2" points="24.91,124.11 24.88,112.55 9.48,121.54 "/>
<polygon class="st0" points="56.07,78.82 56.07,95.11 69.84,100.02 "/>
<polygon class="st1" points="69.84,100.02 56.07,78.82 69.84,83.73 "/>
<polygon class="st3" points="69.84,83.73 69.84,100.02 83.69,104.95 "/>
<polygon class="st4" points="69.84,83.73 83.69,88.68 83.69,104.95 "/>
<polygon class="st5" points="83.69,88.68 83.69,104.95 97.49,109.86 "/>
<polygon class="st6" points="83.69,88.68 97.49,93.61 97.49,109.86 "/>
<polygon class="st7" points="97.49,93.61 111.33,98.55 97.49,109.86 "/>
<polygon class="st6" points="111.33,98.55 97.49,109.86 111.33,114.79 "/>
<polygon class="st5" points="111.33,114.79 125.17,119.71 111.33,98.55 "/>
<polygon class="st4" points="125.17,119.71 111.33,98.55 125.17,103.49 "/>
<polygon class="st3" points="125.17,119.71 139,124.64 125.17,103.49 "/>
<polygon class="st2" points="139,124.64 125.17,103.49 139,108.43 "/>
<polygon class="st1" points="139,124.64 152.82,129.55 139,108.43 "/>
<polygon class="st0" points="152.82,129.55 139,108.43 152.82,113.37 "/>
<polygon class="st1" points="152.82,129.55 152.82,113.37 166.59,118.34 "/>
<polygon class="st2" points="152.82,129.55 175.41,137.6 166.59,118.34 "/>
<polygon class="st3" points="166.59,118.34 175.41,137.6 175.45,121.45 "/>
<polygon class="st3" points="175.41,137.6 159.82,138.8 159.99,132.11 "/>
<polygon class="st4" points="159.82,138.8 175.4,147.78 175.41,137.6 "/>
<polygon class="st7" points="92.13,36.85 92.39,53.9 79.8,61.17 "/>
<polygon class="st6" points="92.13,36.85 79.8,43.97 79.8,61.17 "/>
<polygon class="st5" points="79.8,61.17 79.8,43.97 67.08,51.31 "/>
<polygon class="st4" points="67.08,51.31 67.08,68.51 79.8,61.17 "/>
<polygon class="st3" points="67.08,51.31 54.4,58.64 67.08,68.51 "/>
<polygon class="st2" points="54.4,58.64 54.4,75.84 67.08,68.51 "/>
<polygon class="st1" points="54.4,58.64 41.77,65.93 54.4,75.84 "/>
<polygon class="st0" points="54.4,75.84 37.62,68.32 41.77,65.93 "/>
<polygon class="st1" points="54.4,75.84 52.49,76.94 37.62,68.32 "/>
<polygon class="st2" points="37.62,68.32 37.62,82.9 52.49,76.94 "/>
<polygon class="st3" points="37.62,82.9 52.49,76.94 52.49,91.6 "/>
<polygon class="st4" points="37.62,82.9 37.62,97.59 52.49,91.6 "/>
<polygon class="st5" points="37.62,97.59 52.49,91.6 52.49,106.17 "/>
<polygon class="st6" points="37.62,97.59 37.62,112.21 52.49,106.17 "/>
<polygon class="st7" points="37.62,112.21 52.49,106.17 52.49,120.8 "/>
<polygon class="st6" points="37.62,112.21 37.62,126.9 52.49,120.8 "/>
<polygon class="st5" points="37.62,126.9 37.62,131.26 52.49,120.8 "/>
<polygon class="st4" points="37.62,131.26 52.49,120.8 52.49,139.85 "/>
<polygon class="st3" points="52.49,139.85 52.49,123.02 65.15,130.32 "/>
<polygon class="st1" points="52.49,139.85 65.15,147.16 65.15,130.32 "/>
<polygon class="st0" points="65.15,130.32 77.87,137.67 65.15,147.16 "/>
<polygon class="st2" points="65.15,147.16 77.87,137.67 77.87,154.5 "/>
<polygon class="st3" points="77.87,154.5 77.87,137.67 92.47,146.06 "/>
<polygon class="st4" points="92.39,146.06 92.13,162.73 77.87,154.5 "/>
<polygon class="st5" points="92.39,146.06 92.13,162.73 104.41,155.64 "/>
<polygon class="st6" points="92.39,146.06 104.41,139.12 104.41,155.64 "/>
<polygon class="st7" points="104.41,139.12 104.41,155.64 115.76,149.09 "/>
<polygon class="st6" points="104.41,139.12 115.76,132.57 115.76,149.09 "/>
<polygon class="st5" points="115.76,132.57 115.76,149.09 128.1,141.96 "/>
<path class="st4" d="M128.1,141.96"/>
<polygon class="st4" points="128.1,141.96 115.76,132.57 124.65,127.44 "/>
<polygon class="st2" points="128.1,141.96 142.35,133.74 124.65,127.44 "/>
<polygon class="st6" points="92.39,53.9 92.13,36.85 104.41,43.97 "/>
<polygon class="st5" points="92.39,53.9 104.41,60.83 104.41,43.97 "/>
<polygon class="st0" points="127.21,57.1 138.67,63.72 127.21,74 "/>
<polygon class="st1" points="127.21,74 138.67,63.72 146.64,68.32 "/>
<polygon class="st3" points="127.21,74 132.3,76.94 146.64,68.32 "/>
<polygon class="st4" points="132.3,76.94 146.64,68.32 146.64,81.26 "/>
<polygon class="st5" points="132.3,76.94 146.64,81.26 132.3,86.28 "/>
<polygon class="st6" points="132.3,86.28 146.64,87.95 146.64,81.26 "/>
<polygon class="st7" points="132.3,86.28 146.64,87.95 132.3,96.58 "/>
<polygon class="st4" points="104.41,60.83 104.41,43.97 115.76,50.49 "/>
<polygon class="st3" points="104.41,60.83 115.76,50.49 115.76,67.39 "/>
<polygon class="st2" points="115.76,50.49 127.21,57.1 115.76,67.39 "/>
<polygon class="st1" points="115.76,67.39 127.21,74 127.21,57.1 "/>
<text transform="matrix(1 0 0 1 199.1127 132.5881)"><tspan x="0" y="0" class="st8 st9 st10 st11">S</tspan><tspan x="145.08" y="0" class="st12 st9 st10 st11">C</tspan><tspan x="286.68" y="0" class="st13 st9 st10 st11">I</tspan><tspan x="358.06" y="0" class="st14 st9 st10 st11">N</tspan></text>
<text transform="matrix(1.0556 0 0 1 215.7246 181.4561)" class="st6 st15 st16">Scientists Independence</text>
</svg>
